<svg width="490" height="170" viewBox="0 0 490 170" xmlns="http://www.w3.org/2000/svg">
  <style>
    @keyframes twinkle {
      0%   { opacity: 0; transform: scale(0) rotate(0deg); }
      6%   { opacity: 1; transform: scale(1) rotate(90deg); }
      12%  { opacity: 0; transform: scale(0) rotate(180deg); }
      100% { opacity: 0; transform: scale(0) rotate(180deg); }
    }
    .sparkle {
      opacity: 0;
      transform: scale(0);
      transform-box: fill-box;
      transform-origin: 50% 50%;
      animation: twinkle 3.2s infinite;
    }
  </style>

  <g transform="translate(25,105) scale(1,-1)">
    <path d="M46.41,24.00Q43.80,19.59 40.14,15.14Q36.50,10.70 31.89,6.55Q27.30,2.41 21.80,-0.19Q16.30,-2.80 11.09,-2.80Q2.80,-2.80 2.80,9.59Q2.80,25.30 11.94,42.50Q21.09,59.70 35.30,70.59Q36.20,71.30 37.75,72.25Q39.30,73.20 43.55,74.84Q47.80,76.50 51.30,76.50Q54.00,76.50 56.00,75.70Q56.20,75.59 56.50,75.59Q57.20,75.59 57.59,76.30Q59.70,78.00 64.30,78.00L65.09,78.00Q66.50,78.00 66.50,76.59Q66.50,74.41 63.25,69.59Q60.00,64.80 57.20,61.50Q54.41,58.20 52.20,55.80Q48.50,51.91 47.00,51.91Q46.30,51.91 46.30,52.91Q46.30,56.41 52.00,66.59Q52.09,66.80 53.00,68.19Q53.91,69.59 54.30,70.55Q54.70,71.50 54.70,72.30Q54.70,74.00 52.00,74.00Q49.80,74.00 47.14,72.59Q44.50,71.20 43.00,69.80L41.41,68.41Q30.80,58.59 22.25,42.55Q13.70,26.50 13.70,13.41Q13.70,3.91 19.70,3.91Q20.50,3.91 21.55,4.09Q22.59,4.30 25.14,5.44Q27.70,6.59 30.14,8.64Q32.59,10.70 35.84,14.95Q39.09,19.20 42.00,24.91Q42.80,26.50 44.09,29.45Q45.41,32.41 46.16,33.80Q46.91,35.20 47.41,35.20Q48.09,35.20 48.50,33.95Q48.91,32.70 48.91,31.80Q48.91,28.09 46.41,24.00ZM72.89,6.30Q64.60,-1.30 61.50,-1.30Q60.10,-1.30 60.10,0.30Q60.10,2.30 61.85,6.39Q63.60,10.50 65.39,13.59L67.21,16.70Q67.60,17.41 67.60,17.59Q67.60,17.80 67.39,17.80Q67.00,17.80 65.89,16.70Q62.89,13.41 59.05,9.66Q55.21,5.91 52.80,3.80L50.50,1.80Q46.60,-1.20 44.50,-1.20Q42.30,-1.20 42.30,2.20Q42.30,3.91 43.25,7.41Q44.21,10.91 44.71,12.09Q47.00,17.70 50.44,23.00Q53.89,28.30 58.60,33.14Q63.30,38.00 69.55,41.00Q75.80,44.00 82.50,44.00Q88.10,44.00 88.10,42.30Q88.10,41.30 85.60,41.30Q76.39,41.30 68.35,33.44Q60.30,25.59 55.30,15.41Q53.89,12.59 53.89,10.70Q53.89,9.59 54.60,9.59Q55.80,9.59 57.71,11.30Q58.89,12.41 60.94,14.20Q63.00,16.00 67.60,21.09Q72.21,26.20 74.89,30.59Q75.30,31.41 76.14,32.50Q77.00,33.59 79.39,35.44Q81.80,37.30 84.21,37.30Q85.50,37.30 85.50,36.59Q85.50,36.41 85.21,35.91Q84.80,35.09 82.94,31.89Q81.10,28.70 79.49,25.84Q77.89,23.00 76.10,19.64Q74.30,16.30 73.25,13.89Q72.21,11.50 72.21,10.70Q72.21,10.09 72.71,10.09Q74.21,10.09 80.00,15.91Q84.39,20.50 90.30,27.20Q90.60,27.50 90.80,27.50Q91.00,27.50 91.00,27.09Q91.00,25.20 89.50,23.41Q79.71,12.50 72.89,6.30ZM109.89,48.70Q117.00,53.70 122.64,60.05Q128.30,66.41 131.25,71.75Q134.21,77.09 135.71,81.00Q137.21,84.91 137.21,86.59Q137.21,87.59 136.50,87.59Q135.10,87.59 133.10,85.59Q129.30,81.80 124.50,74.59Q119.71,67.41 116.75,62.25Q113.80,57.09 109.10,48.50Q109.50,48.50 109.89,48.70ZM99.21,15.09Q103.39,19.30 110.30,27.20Q110.60,27.50 110.80,27.50Q111.00,27.50 111.00,27.09Q111.00,25.20 109.50,23.41Q102.10,15.20 96.39,9.70Q83.89,-2.09 80.50,-2.09Q79.00,-2.09 79.00,0.00Q79.00,1.09 79.25,2.39Q79.50,3.70 80.11,5.25Q80.71,6.80 81.14,7.84Q81.60,8.91 82.44,10.84Q83.30,12.80 83.60,13.50Q86.39,19.80 100.80,46.70Q120.50,82.59 137.00,90.80Q139.39,92.00 141.80,92.00Q144.60,92.00 144.60,89.41Q144.60,83.41 140.49,76.25Q136.39,69.09 130.49,63.09Q124.60,57.09 118.94,52.59Q113.30,48.09 109.21,45.80Q108.60,45.59 108.10,44.91Q103.71,37.80 99.50,29.64Q95.30,21.50 93.21,16.80L91.21,12.20Q90.71,10.70 90.71,10.20Q90.71,9.30 91.39,9.30Q93.39,9.30 99.21,15.09ZM128.30,33.91Q129.50,36.41 129.50,38.30Q129.50,39.91 128.50,39.91Q127.89,39.91 127.14,39.55Q126.39,39.20 126.00,38.80L125.50,38.41Q122.39,35.70 117.74,28.55Q113.10,21.41 113.10,19.41Q113.10,19.00 113.30,19.00Q113.89,19.00 115.94,20.00Q118.00,21.00 121.85,24.70Q125.71,28.41 128.30,33.91ZM123.80,11.00Q129.10,15.91 139.00,27.20Q139.30,27.50 139.50,27.50Q139.71,27.50 139.71,27.09Q139.71,25.20 138.21,23.41Q130.80,15.20 125.10,9.70Q120.89,5.50 115.10,1.64Q109.30,-2.20 105.50,-2.20Q100.89,-2.20 100.89,4.20Q100.89,14.80 108.74,26.39Q116.60,38.00 126.89,42.09Q131.21,43.91 134.71,43.91Q138.60,43.91 138.60,40.80Q138.60,35.00 130.39,27.50Q122.21,20.00 112.00,16.09Q111.60,16.00 111.30,15.41Q109.80,11.30 109.80,8.09Q109.80,4.50 112.50,4.50Q116.80,4.50 123.80,11.00ZM132.80,-1.80Q131.09,-1.80 129.59,-1.50Q128.09,-1.20 127.41,-1.00L126.70,-0.70Q126.00,-0.50 126.00,0.09L126.20,0.70Q134.41,20.30 148.59,44.80Q148.80,45.20 152.09,50.89Q155.41,56.59 156.30,58.14Q157.20,59.70 160.20,64.64Q163.20,69.59 164.89,72.25Q166.59,74.91 169.19,78.80Q171.80,82.70 174.20,85.80Q177.30,89.70 178.50,89.70Q179.00,89.70 179.00,88.91Q179.00,87.09 175.59,80.41Q170.59,69.80 164.00,58.41Q150.91,35.59 147.59,29.59L147.59,29.20Q147.59,28.70 147.80,28.70Q147.91,28.70 148.41,29.20Q149.70,30.91 151.84,33.41Q154.00,35.91 159.00,40.09Q164.00,44.30 167.09,44.30Q169.59,44.30 169.59,40.41Q169.59,34.30 165.50,26.09Q163.09,21.30 159.80,16.64Q156.50,12.00 152.30,7.75Q148.09,3.50 143.00,0.84Q137.91,-1.80 132.80,-1.80ZM159.30,31.20Q160.50,34.09 160.50,35.50Q160.50,36.80 159.50,36.80Q158.70,36.80 157.14,35.59Q155.59,34.41 154.50,33.20L153.30,32.00Q147.41,25.09 142.70,17.55Q138.00,10.00 136.30,5.91L134.50,1.80Q134.30,1.50 134.30,1.20Q134.30,0.70 135.80,0.70Q140.20,0.70 146.80,8.95Q153.41,17.20 159.30,31.20ZM196.09,48.09Q189.00,48.09 189.00,34.91L189.00,34.20Q189.00,32.91 188.41,32.91Q186.91,32.91 186.16,36.50Q185.41,40.09 185.41,42.59Q185.41,46.70 187.25,49.89Q189.09,53.09 193.00,53.09Q200.70,53.09 207.80,44.09Q213.80,51.09 220.64,58.25Q227.50,65.41 231.30,69.00L235.09,72.70Q241.30,82.00 245.30,82.00Q246.30,82.00 246.30,81.09Q246.30,80.50 245.91,79.70Q237.09,62.41 229.80,40.70Q220.59,13.09 220.59,-1.59Q220.59,-6.20 221.70,-8.30Q222.09,-8.80 222.09,-9.30Q222.09,-10.00 220.91,-10.00Q218.20,-10.00 216.39,-8.64Q214.59,-7.30 213.84,-5.09Q213.09,-2.91 212.80,-1.16Q212.50,0.59 212.50,2.41Q212.50,5.41 213.59,11.30Q214.70,17.20 214.70,19.91Q214.70,23.91 212.95,29.34Q211.20,34.80 208.30,39.30Q205.09,34.91 202.44,30.50Q199.80,26.09 198.70,24.00L197.70,21.80Q194.09,14.41 190.59,8.30Q187.09,2.20 185.41,-0.20L183.70,-2.50Q182.59,-3.80 181.70,-3.80Q180.59,-3.80 180.59,-1.50Q180.91,12.59 206.20,42.20Q201.30,48.09 196.09,48.09ZM230.41,63.80Q219.41,54.20 209.80,41.30Q214.00,34.91 216.30,26.70Q216.59,25.80 216.80,25.80L217.30,26.70Q219.80,35.20 223.34,44.34Q226.91,53.50 229.20,58.41L231.50,63.20Q231.80,63.80 231.80,64.00Q231.80,64.20 231.50,64.20L230.41,63.80ZM259.20,9.70Q247.50,-1.30 243.79,-1.30Q242.11,-1.30 242.11,0.50Q242.11,1.59 242.61,3.25Q243.11,4.91 243.86,6.55Q244.61,8.20 245.29,9.59Q246.00,11.00 246.70,12.20Q247.40,13.41 247.40,13.50Q248.90,16.20 251.90,21.05Q254.90,25.91 256.70,29.05Q258.50,32.20 258.50,32.91Q258.50,33.41 258.00,33.41L256.61,32.91Q252.00,29.59 245.59,22.64Q239.20,15.70 235.11,10.41L231.00,5.20Q229.70,3.30 228.70,2.09Q227.70,0.91 225.84,-0.25Q224.00,-1.41 222.11,-1.41Q220.70,-1.41 220.70,-0.59Q220.70,0.20 222.61,4.05Q224.50,7.91 226.40,11.41L228.29,14.80L238.11,32.00Q239.61,34.50 240.54,35.84Q241.50,37.20 243.20,39.25Q244.90,41.30 246.84,42.30Q248.79,43.30 251.00,43.50Q251.79,43.50 251.79,42.80Q251.79,42.20 251.50,41.80Q249.20,38.20 244.45,29.89Q239.70,21.59 238.40,19.09Q238.11,18.50 238.11,18.20Q238.11,18.00 238.29,18.00Q238.50,18.00 239.29,18.59Q241.20,20.80 244.25,24.09Q247.29,27.41 254.59,34.05Q261.90,40.70 266.61,43.00Q267.70,43.50 268.70,43.50Q270.11,43.50 270.11,41.91Q269.29,37.20 262.40,25.80Q254.79,13.30 254.79,11.00Q254.79,10.20 255.50,10.20Q256.00,10.20 256.64,10.55Q257.29,10.91 258.09,11.55Q258.90,12.20 259.45,12.70Q260.00,13.20 260.89,14.05Q261.79,14.91 262.00,15.09Q266.20,19.30 273.11,27.20Q273.40,27.50 273.59,27.50Q273.79,27.50 273.79,27.09Q273.79,25.20 272.29,23.41Q264.90,15.20 259.20,9.70ZM277.01,10.70Q277.60,11.20 278.65,12.14Q279.69,13.09 282.69,16.14Q285.69,19.20 288.44,22.45Q291.19,25.70 294.54,30.50Q297.90,35.30 300.30,40.00Q300.40,40.20 300.40,40.41L300.30,40.70Q299.60,41.09 298.69,41.09Q294.40,41.09 288.04,34.69Q281.69,28.30 277.24,20.94Q272.80,13.59 272.80,10.41Q272.80,9.00 273.90,9.00Q275.10,9.00 277.01,10.70ZM299.10,15.09Q303.30,19.30 310.19,27.20Q310.51,27.50 310.69,27.50Q310.90,27.50 310.90,27.09Q310.90,25.20 309.40,23.41Q302.01,15.20 296.30,9.70Q284.51,-1.30 280.80,-1.30Q279.40,-1.30 279.40,0.20Q279.40,2.09 281.29,6.19Q283.19,10.30 285.19,13.50L287.10,16.70Q287.51,17.20 287.51,17.59Q287.51,17.80 287.30,17.80Q286.90,17.80 286.19,17.09Q283.10,13.50 279.10,9.70Q275.10,5.91 272.60,3.80L270.19,1.80Q266.19,-1.30 264.19,-1.30L263.80,-1.20Q262.10,-1.09 262.10,1.80Q262.10,9.41 267.44,19.16Q272.80,28.91 281.30,36.09Q289.80,43.30 297.69,43.30Q298.51,43.30 299.19,43.14Q299.90,43.00 300.24,42.89Q300.60,42.80 300.90,42.59L301.19,42.50Q301.40,42.50 301.69,42.80Q320.19,76.20 330.10,88.91Q333.10,92.91 334.40,92.91Q334.90,92.91 334.90,92.09Q334.90,90.00 331.69,83.50Q316.30,55.30 310.10,44.41Q299.01,24.59 296.60,20.59Q291.69,12.20 291.69,10.41Q291.69,9.70 292.30,9.70Q292.80,9.70 293.44,10.05Q294.10,10.41 294.90,11.09Q295.69,11.80 296.35,12.39Q297.01,13.00 297.90,13.89Q298.80,14.80 299.10,15.09ZM329.79,6.30Q321.50,-1.30 318.40,-1.30Q317.00,-1.30 317.00,0.30Q317.00,2.30 318.75,6.39Q320.50,10.50 322.29,13.59L324.11,16.70Q324.50,17.41 324.50,17.59Q324.50,17.80 324.29,17.80Q323.90,17.80 322.79,16.70Q319.79,13.41 315.95,9.66Q312.11,5.91 309.70,3.80L307.40,1.80Q303.50,-1.20 301.40,-1.20Q299.20,-1.20 299.20,2.20Q299.20,3.91 300.15,7.41Q301.11,10.91 301.61,12.09Q303.90,17.70 307.34,23.00Q310.79,28.30 315.50,33.14Q320.20,38.00 326.45,41.00Q332.70,44.00 339.40,44.00Q345.00,44.00 345.00,42.30Q345.00,41.30 342.50,41.30Q333.29,41.30 325.25,33.44Q317.20,25.59 312.20,15.41Q310.79,12.59 310.79,10.70Q310.79,9.59 311.50,9.59Q312.70,9.59 314.61,11.30Q315.79,12.41 317.84,14.20Q319.90,16.00 324.50,21.09Q329.11,26.20 331.79,30.59Q332.20,31.41 333.04,32.50Q333.90,33.59 336.29,35.44Q338.70,37.30 341.11,37.30Q342.40,37.30 342.40,36.59Q342.40,36.41 342.11,35.91Q341.70,35.09 339.84,31.89Q338.00,28.70 336.39,25.84Q334.79,23.00 333.00,19.64Q331.20,16.30 330.15,13.89Q329.11,11.50 329.11,10.70Q329.11,10.09 329.61,10.09Q331.11,10.09 336.90,15.91Q341.29,20.50 347.20,27.20Q347.50,27.50 347.70,27.50Q347.90,27.50 347.90,27.09Q347.90,25.20 346.40,23.41Q336.61,12.50 329.79,6.30ZM362.79,20.70Q362.00,20.70 362.00,21.30Q362.00,21.59 362.29,22.09Q368.20,31.30 368.20,34.70Q368.20,35.59 367.50,35.59Q364.50,35.59 353.40,22.00Q350.11,17.80 347.25,13.30Q344.40,8.80 343.29,6.41L342.11,4.09Q340.90,1.70 338.40,-0.34Q335.90,-2.41 333.20,-2.41Q331.79,-2.41 331.79,-1.70Q331.79,-1.09 332.65,0.80Q333.50,2.70 334.70,5.00Q335.90,7.30 337.11,9.50Q338.29,11.70 339.11,13.20L340.00,14.70L350.50,33.00Q356.61,44.50 363.29,44.50Q364.20,44.50 364.20,43.80Q364.20,42.91 359.84,36.34Q355.50,29.80 354.79,28.00Q354.61,27.41 354.61,27.30Q354.61,27.09 354.79,27.09Q355.00,27.09 355.50,27.59Q363.00,36.09 371.40,42.70Q371.90,43.20 373.59,44.14Q375.29,45.09 376.61,45.09Q378.50,45.09 378.50,41.80Q378.50,38.20 376.09,33.20Q373.70,28.20 369.61,24.41L369.20,24.00Q368.79,23.70 368.34,23.34Q367.90,23.00 367.20,22.50Q366.50,22.00 365.79,21.64Q365.11,21.30 364.29,21.00Q363.50,20.70 362.79,20.70ZM390.40,16.70Q390.81,17.50 390.81,17.80L389.81,17.09Q386.70,13.50 382.65,9.70Q378.60,5.91 376.10,3.80L373.60,1.80Q369.49,-1.20 367.40,-1.20Q365.40,-1.20 365.40,1.70Q365.40,8.91 370.70,18.70Q375.99,28.50 384.45,35.89Q392.90,43.30 400.49,43.30Q401.99,43.30 403.04,42.94Q404.10,42.59 404.54,42.30Q404.99,42.00 405.10,42.00Q405.31,42.00 405.60,42.30Q406.20,43.09 407.15,44.30Q408.10,45.50 410.40,47.55Q412.70,49.59 414.10,49.59Q414.81,49.59 414.81,48.59Q414.81,47.20 413.40,44.41Q402.70,24.70 400.40,20.59Q399.60,19.09 396.74,14.14Q393.90,9.20 392.70,7.09Q398.99,12.20 403.10,15.91Q407.49,20.50 413.40,27.20Q413.70,27.50 413.90,27.50Q414.10,27.50 414.10,27.09Q414.10,25.20 412.60,23.41Q408.20,18.59 404.99,15.20Q400.81,10.80 389.99,2.41L387.40,-2.41Q368.10,-37.91 360.81,-48.59Q360.10,-49.70 359.01,-51.25Q357.90,-52.80 355.40,-55.44Q352.90,-58.09 351.40,-58.09Q348.99,-58.09 348.99,-51.20Q348.99,-41.00 356.31,-29.00Q363.99,-16.30 380.31,-2.91L390.40,16.70ZM403.70,40.00Q403.81,40.09 403.81,40.41Q403.81,41.09 402.20,41.09Q398.20,41.09 391.90,34.89Q385.60,28.70 380.99,21.30Q376.40,13.91 376.40,10.41Q376.40,9.00 377.60,9.00Q378.70,9.00 380.40,10.41Q381.90,11.70 384.45,14.05Q386.99,16.41 393.20,24.09Q399.40,31.80 403.70,40.00ZM358.81,-28.80Q357.99,-30.00 356.90,-31.95Q355.81,-33.91 353.90,-38.66Q351.99,-43.41 351.99,-46.59Q351.99,-48.30 352.60,-48.30Q353.10,-48.30 354.10,-47.34Q355.10,-46.41 355.81,-45.41L356.49,-44.41Q364.90,-31.41 377.70,-7.70Q365.10,-18.59 358.81,-28.80ZM431.40,33.91Q432.60,36.41 432.60,38.30Q432.60,39.91 431.60,39.91Q430.99,39.91 430.24,39.55Q429.49,39.20 429.10,38.80L428.60,38.41Q425.49,35.70 420.84,28.55Q416.20,21.41 416.20,19.41Q416.20,19.00 416.40,19.00Q416.99,19.00 419.04,20.00Q421.10,21.00 424.95,24.70Q428.81,28.41 431.40,33.91ZM426.90,11.00Q432.20,15.91 442.10,27.20Q442.40,27.50 442.60,27.50Q442.81,27.50 442.81,27.09Q442.81,25.20 441.31,23.41Q433.90,15.20 428.20,9.70Q423.99,5.50 418.20,1.64Q412.40,-2.20 408.60,-2.20Q403.99,-2.20 403.99,4.20Q403.99,14.80 411.84,26.39Q419.70,38.00 429.99,42.09Q434.31,43.91 437.81,43.91Q441.70,43.91 441.70,40.80Q441.70,35.00 433.49,27.50Q425.31,20.00 415.10,16.09Q414.70,16.00 414.40,15.41Q412.90,11.30 412.90,8.09Q412.90,4.50 415.60,4.50Q419.90,4.50 426.90,11.00Z" fill="#00ff9c"/>
  </g>

  <g class="sparkle" style="animation-delay:0s">
    <g transform="translate(25,20) scale(0.3)">
      <path d="M26.5 25.5C19.0043 33.3697 0 34 0 34C0 34 19.1013 35.3684 26.5 43.5C33.234 50.901 34 68 34 68C34 68 36.9884 50.7065 44.5 43.5C51.6431 36.647 68 34 68 34C68 34 51.6947 32.0939 44.5 25.5C36.5605 18.2235 34 0 34 0C34 0 33.6591 17.9837 26.5 25.5Z" fill="#ff00c8"/>
    </g>
  </g>
  <g class="sparkle" style="animation-delay:0.45s">
    <g transform="translate(150,15) scale(0.36)">
      <path d="M26.5 25.5C19.0043 33.3697 0 34 0 34C0 34 19.1013 35.3684 26.5 43.5C33.234 50.901 34 68 34 68C34 68 36.9884 50.7065 44.5 43.5C51.6431 36.647 68 34 68 34C68 34 51.6947 32.0939 44.5 25.5C36.5605 18.2235 34 0 34 0C34 0 33.6591 17.9837 26.5 25.5Z" fill="#ff00c8"/>
    </g>
  </g>
  <g class="sparkle" style="animation-delay:0.9s">
    <g transform="translate(330,25) scale(0.32)">
      <path d="M26.5 25.5C19.0043 33.3697 0 34 0 34C0 34 19.1013 35.3684 26.5 43.5C33.234 50.901 34 68 34 68C34 68 36.9884 50.7065 44.5 43.5C51.6431 36.647 68 34 68 34C68 34 51.6947 32.0939 44.5 25.5C36.5605 18.2235 34 0 34 0C34 0 33.6591 17.9837 26.5 25.5Z" fill="#ff00c8"/>
    </g>
  </g>
  <g class="sparkle" style="animation-delay:1.35s">
    <g transform="translate(455,40) scale(0.26)">
      <path d="M26.5 25.5C19.0043 33.3697 0 34 0 34C0 34 19.1013 35.3684 26.5 43.5C33.234 50.901 34 68 34 68C34 68 36.9884 50.7065 44.5 43.5C51.6431 36.647 68 34 68 34C68 34 51.6947 32.0939 44.5 25.5C36.5605 18.2235 34 0 34 0C34 0 33.6591 17.9837 26.5 25.5Z" fill="#ff00c8"/>
    </g>
  </g>
  <g class="sparkle" style="animation-delay:1.8s">
    <g transform="translate(60,135) scale(0.34)">
      <path d="M26.5 25.5C19.0043 33.3697 0 34 0 34C0 34 19.1013 35.3684 26.5 43.5C33.234 50.901 34 68 34 68C34 68 36.9884 50.7065 44.5 43.5C51.6431 36.647 68 34 68 34C68 34 51.6947 32.0939 44.5 25.5C36.5605 18.2235 34 0 34 0C34 0 33.6591 17.9837 26.5 25.5Z" fill="#ff00c8"/>
    </g>
  </g>
  <g class="sparkle" style="animation-delay:2.25s">
    <g transform="translate(270,145) scale(0.28)">
      <path d="M26.5 25.5C19.0043 33.3697 0 34 0 34C0 34 19.1013 35.3684 26.5 43.5C33.234 50.901 34 68 34 68C34 68 36.9884 50.7065 44.5 43.5C51.6431 36.647 68 34 68 34C68 34 51.6947 32.0939 44.5 25.5C36.5605 18.2235 34 0 34 0C34 0 33.6591 17.9837 26.5 25.5Z" fill="#ff00c8"/>
    </g>
  </g>
  <g class="sparkle" style="animation-delay:2.7s">
    <g transform="translate(410,120) scale(0.24)">
      <path d="M26.5 25.5C19.0043 33.3697 0 34 0 34C0 34 19.1013 35.3684 26.5 43.5C33.234 50.901 34 68 34 68C34 68 36.9884 50.7065 44.5 43.5C51.6431 36.647 68 34 68 34C68 34 51.6947 32.0939 44.5 25.5C36.5605 18.2235 34 0 34 0C34 0 33.6591 17.9837 26.5 25.5Z" fill="#ff00c8"/>
    </g>
  </g>
  <g class="sparkle" style="animation-delay:1.1s">
    <g transform="translate(200,80) scale(0.22)">
      <path d="M26.5 25.5C19.0043 33.3697 0 34 0 34C0 34 19.1013 35.3684 26.5 43.5C33.234 50.901 34 68 34 68C34 68 36.9884 50.7065 44.5 43.5C51.6431 36.647 68 34 68 34C68 34 51.6947 32.0939 44.5 25.5C36.5605 18.2235 34 0 34 0C34 0 33.6591 17.9837 26.5 25.5Z" fill="#ff00c8"/>
    </g>
  </g>
</svg>
